HIERARCHY
ROOT Hips
{
 OFFSET 0.000000 0.000000 0.000000
 CHANNELS 6 Xposition Yposition Zposition Yrotation Xrotation Zrotation
 JOINT Chest
 {
  OFFSET 0.000000 9.585900 0.002600
  CHANNELS 3 Yrotation Xrotation Zrotation
  JOINT Chest2
  {
   OFFSET 0.000000 9.601200 -0.005300
   CHANNELS 3 Yrotation Xrotation Zrotation
   JOINT Chest3
   {
    OFFSET 0.000000 9.561800 0.000000
    CHANNELS 3 Yrotation Xrotation Zrotation
    JOINT Chest4
    {
     OFFSET 0.000000 9.552100 0.000000
     CHANNELS 3 Yrotation Xrotation Zrotation
     JOINT Neck
     {
      OFFSET 0.000000 14.453000 0.000000
      CHANNELS 3 Yrotation Xrotation Zrotation
      JOINT Head
      {
       OFFSET 0.000000 8.936500 -0.011300
       CHANNELS 3 Yrotation Xrotation Zrotation
       End Site
       {
        OFFSET 0.000000 17.073600 -0.006000
       }
      }
     }
     JOINT RightCollar
     {
      OFFSET -2.921100 9.558500 0.000000
      CHANNELS 3 Yrotation Xrotation Zrotation
      JOINT RightShoulder
      {
       OFFSET -13.519700 0.000000 0.000000
       CHANNELS 3 Yrotation Xrotation Zrotation
       JOINT RightElbow
       {
        OFFSET 0.000000 -29.696600 0.000000
        CHANNELS 3 Yrotation Xrotation Zrotation
        JOINT RightWrist
        {
         OFFSET 0.000000 -24.004700 0.000000
         CHANNELS 3 Yrotation Xrotation Zrotation
         End Site
         {
          OFFSET 0.000000 -17.728500 0.000000
         }
        }
       }
      }
     }
     JOINT LeftCollar
     {
      OFFSET 2.921100 9.558500 0.000000
      CHANNELS 3 Yrotation Xrotation Zrotation
      JOINT LeftShoulder
      {
       OFFSET 13.519700 0.000000 0.000000
       CHANNELS 3 Yrotation Xrotation Zrotation
       JOINT LeftElbow
       {
        OFFSET 0.000000 -29.696600 0.000000
        CHANNELS 3 Yrotation Xrotation Zrotation
        JOINT LeftWrist
        {
         OFFSET 0.000000 -24.004700 0.000000
         CHANNELS 3 Yrotation Xrotation Zrotation
         End Site
         {
          OFFSET 0.000000 -17.728500 0.000000
         }
        }
       }
      }
     }
    }
   }
  }
 }
 JOINT RightHip
 {
  OFFSET -7.771700 -0.012900 -0.001300
  CHANNELS 3 Yrotation Xrotation Zrotation
  JOINT RightKnee
  {
   OFFSET 0.000000 -40.869800 0.001200
   CHANNELS 3 Yrotation Xrotation Zrotation
   JOINT RightAnkle
   {
    OFFSET 0.000000 -39.717900 0.002100
    CHANNELS 3 Yrotation Xrotation Zrotation
    JOINT RightToe
    {
     OFFSET 0.000000 -4.965400 11.033500
     CHANNELS 3 Yrotation Xrotation Zrotation
     End Site
     {
      OFFSET 0.000000 -1.423100 5.872300
     }
    }
   }
  }
 }
 JOINT LeftHip
 {
  OFFSET 7.771700 -0.012900 -0.001300
  CHANNELS 3 Yrotation Xrotation Zrotation
  JOINT LeftKnee
  {
   OFFSET 0.000000 -40.869800 0.001200
   CHANNELS 3 Yrotation Xrotation Zrotation
   JOINT LeftAnkle
   {
    OFFSET 0.000000 -39.717900 0.002100
    CHANNELS 3 Yrotation Xrotation Zrotation
    JOINT LeftToe
    {
     OFFSET 0.000000 -4.965400 11.033500
     CHANNELS 3 Yrotation Xrotation Zrotation
     End Site
     {
      OFFSET 0.000000 -1.423100 5.872300
     }
    }
   }
  }
 }
}
MOTION
Frames: 5
Frame Time: 0.008333
-104.822659 57.695707 96.579275 177.076446 -35.362246 -1.426712 2.370688 24.249954 2.239507 0.231345 3.678056 0.338677 0.382919 5.909770 0.552260 1.591066 20.085973 2.110684 -0.188879 11.215894 -1.671492 0.364582 -14.952995 -3.128971 -6.919057 1.206676 -3.065148 -3.139033 -9.551778 -6.412616 -8.107023 -70.199494 13.534933 4.328295 -5.514503 -33.103923 3.171395 -1.661213 2.763064 11.800627 -7.067729 -12.751046 61.851920 -30.998653 -36.899100 11.048135 -9.060906 15.206777 11.296575 -40.590228 -5.713113 -8.906969 67.852613 -9.459173 7.844836 25.799194 8.256900 -0.408783 -18.085715 3.150021 -4.755024 -37.062567 1.225810 22.717714 63.366784 20.632079 -16.403302 7.752209 -3.001259 0.165744 0.746669 0.075366
-104.858699 57.701252 96.568824 177.214392 -35.390178 -1.379364 2.295123 24.235199 2.178242 0.230020 3.667291 0.337945 0.380754 5.893493 0.551144 1.585545 20.063161 2.109006 -0.222607 11.223976 -1.690958 0.308072 -14.938443 -3.151543 -6.914791 1.169135 -3.045446 -3.265178 -9.511281 -6.456208 -8.944396 -70.435685 14.269984 4.254726 -5.445230 -33.275763 3.169043 -1.715132 2.713607 12.019693 -7.059055 -12.627055 62.251223 -31.262291 -37.548712 11.091166 -9.071513 15.214534 11.246262 -40.544814 -5.895999 -8.981019 67.914001 -9.525222 7.863146 25.722947 8.203158 -0.386433 -18.026035 3.164795 -4.668436 -37.021928 1.021617 22.633749 63.327237 20.537593 -16.403110 7.806364 -2.916351 0.162103 0.736725 0.064415
-104.893986 57.704064 96.563342 177.314433 -35.377579 -1.330858 2.265331 24.181638 2.143253 0.229057 3.657878 0.337377 0.379177 5.879157 0.550288 1.581758 20.043029 2.108050 -0.259282 11.225697 -1.708334 0.245162 -14.935842 -3.169030 -6.913475 1.118607 -3.025586 -3.409606 -9.463486 -6.491500 -9.737534 -70.703129 14.968381 4.196909 -5.378152 -33.438119 3.161777 -1.777523 2.661310 12.247497 -7.059627 -12.501941 62.645999 -31.534387 -38.204593 11.142031 -9.082831 15.240482 11.199322 -40.540967 -6.060532 -8.851954 67.947416 -9.415764 7.871102 25.709814 8.197079 -0.384172 -18.018619 3.158295 -4.563909 -37.020265 0.846654 22.553843 63.286287 20.441930 -16.384302 7.858881 -2.821997 0.141338 0.730106 0.055785
-104.930533 57.707341 96.557949 177.420432 -35.360462 -1.292312 2.239921 24.126920 2.119125 0.176594 3.672340 0.315997 0.432068 5.844068 0.567109 1.580141 20.025196 2.107558 -0.331903 11.259558 -1.708448 0.213284 -14.987381 -3.203518 -6.914144 1.054414 -3.006056 -3.570321 -9.407143 -6.517547 -10.393219 -71.004834 15.537422 4.159438 -5.319561 -33.579134 3.153515 -1.845763 2.609103 12.480936 -7.071731 -12.376776 63.038089 -31.806820 -38.872157 11.200525 -9.100146 15.292049 11.149863 -40.543407 -6.220247 -8.736491 67.981854 -9.317486 7.880186 25.701890 8.193073 -0.378537 -18.017221 3.151633 -4.466476 -37.023181 0.683742 22.486649 63.244452 20.352388 -16.373281 7.912417 -2.727684 0.116641 0.723106 0.053021
-104.973903 57.715205 96.546142 177.578945 -35.385232 -1.254406 2.166853 24.118836 2.067556 0.119026 3.685363 0.294418 0.490980 5.811907 0.584107 1.580663 20.008461 2.108024 -0.358138 11.228795 -1.728698 0.119503 -14.935458 -3.174820 -6.914826 0.977894 -2.987275 -3.707837 -9.299029 -6.536878 -10.921065 -71.379917 15.945565 4.140106 -5.272237 -33.699167 3.148465 -1.916691 2.559291 12.713366 -7.093656 -12.251885 63.446209 -32.069669 -39.569961 11.261976 -9.121105 15.366519 11.075949 -40.502283 -6.421827 -8.707452 68.059943 -9.277694 7.883702 25.617732 8.131667 -0.356050 -17.959285 3.163624 -4.386707 -36.986285 0.485122 22.426372 63.201868 20.263165 -16.404956 7.978520 -2.637475 0.125828 0.702771 0.052272
